solid ascii
 facet normal 0 -0.866025 -0.5
  outer loop
   vertex 0.65 -0.03 0
   vertex 6.66134e-18 -0.03 0
   vertex 0.65 -0.015 -0.0259808
  endloop
 endfacet
 facet normal -0 -0.866025 -0.5
  outer loop
   vertex 3.33067e-18 -0.015 -0.0259808
   vertex 0.65 -0.015 -0.0259808
   vertex 6.66134e-18 -0.03 0
  endloop
 endfacet
 facet normal 0 0 -1
  outer loop
   vertex 0.65 -0.015 -0.0259808
   vertex 3.33067e-18 -0.015 -0.0259808
   vertex 0.65 0.015 -0.0259808
  endloop
 endfacet
 facet normal -0 0 -1
  outer loop
   vertex -3.33067e-18 0.015 -0.0259808
   vertex 0.65 0.015 -0.0259808
   vertex 3.33067e-18 -0.015 -0.0259808
  endloop
 endfacet
 facet normal 0 0.866025 -0.5
  outer loop
   vertex 0.65 0.015 -0.0259808
   vertex -3.33067e-18 0.015 -0.0259808
   vertex 0.65 0.03 -3.67394e-18
  endloop
 endfacet
 facet normal 0 0.866025 -0.5
  outer loop
   vertex -6.66134e-18 0.03 -3.67394e-18
   vertex 0.65 0.03 -3.67394e-18
   vertex -3.33067e-18 0.015 -0.0259808
  endloop
 endfacet
 facet normal -0 0.866025 0.5
  outer loop
   vertex 0.65 0.03 -3.67394e-18
   vertex -6.66134e-18 0.03 -3.67394e-18
   vertex 0.65 0.015 0.0259808
  endloop
 endfacet
 facet normal 0 0.866025 0.5
  outer loop
   vertex -3.33067e-18 0.015 0.0259808
   vertex 0.65 0.015 0.0259808
   vertex -6.66134e-18 0.03 -3.67394e-18
  endloop
 endfacet
 facet normal -0 0 1
  outer loop
   vertex 0.65 0.015 0.0259808
   vertex -3.33067e-18 0.015 0.0259808
   vertex 0.65 -0.015 0.0259808
  endloop
 endfacet
 facet normal 0 0 1
  outer loop
   vertex 3.33067e-18 -0.015 0.0259808
   vertex 0.65 -0.015 0.0259808
   vertex -3.33067e-18 0.015 0.0259808
  endloop
 endfacet
 facet normal 0 -0.866025 0.5
  outer loop
   vertex 0.65 -0.015 0.0259808
   vertex 3.33067e-18 -0.015 0.0259808
   vertex 0.65 -0.03 0
  endloop
 endfacet
 facet normal 0 -0.866025 0.5
  outer loop
   vertex 6.66134e-18 -0.03 0
   vertex 0.65 -0.03 0
   vertex 3.33067e-18 -0.015 0.0259808
  endloop
 endfacet
 facet normal 1 0 -0
  outer loop
   vertex 0.65 -0.03 0
   vertex 0.65 -0.015 -0.0259808
   vertex 0.65 -0.015 0.0259808
  endloop
 endfacet
 facet normal 1 0 0
  outer loop
   vertex 0.65 -0.015 0.0259808
   vertex 0.65 -0.015 -0.0259808
   vertex 0.65 0.015 0.0259808
  endloop
 endfacet
 facet normal 1 0 -0
  outer loop
   vertex 0.65 -0.015 -0.0259808
   vertex 0.65 0.015 -0.0259808
   vertex 0.65 0.015 0.0259808
  endloop
 endfacet
 facet normal 1 0 0
  outer loop
   vertex 0.65 0.03 -3.67394e-18
   vertex 0.65 0.015 0.0259808
   vertex 0.65 0.015 -0.0259808
  endloop
 endfacet
 facet normal -1 -2.22045e-16 0
  outer loop
   vertex -6.66134e-18 0.03 -3.67394e-18
   vertex -3.33067e-18 0.015 -0.0259808
   vertex -3.33067e-18 0.015 0.0259808
  endloop
 endfacet
 facet normal -1 -2.22045e-16 0
  outer loop
   vertex -3.33067e-18 0.015 0.0259808
   vertex -3.33067e-18 0.015 -0.0259808
   vertex 3.33067e-18 -0.015 0.0259808
  endloop
 endfacet
 facet normal -1 -2.22045e-16 0
  outer loop
   vertex -3.33067e-18 0.015 -0.0259808
   vertex 3.33067e-18 -0.015 -0.0259808
   vertex 3.33067e-18 -0.015 0.0259808
  endloop
 endfacet
 facet normal -1 -2.22045e-16 0
  outer loop
   vertex 3.33067e-18 -0.015 0.0259808
   vertex 3.33067e-18 -0.015 -0.0259808
   vertex 6.66134e-18 -0.03 0
  endloop
 endfacet
 facet normal -1 0 0
  outer loop
   vertex 0.65 0.1 0
   vertex 0.65 0.05 -0.0866025
   vertex 0.65 0.05 0.0866025
  endloop
 endfacet
 facet normal -1 0 0
  outer loop
   vertex 0.65 0.05 0.0866025
   vertex 0.65 0.05 -0.0866025
   vertex 0.65 -0.05 0.0866025
  endloop
 endfacet
 facet normal -1 0 0
  outer loop
   vertex 0.65 0.05 -0.0866025
   vertex 0.65 -0.05 -0.0866025
   vertex 0.65 -0.05 0.0866025
  endloop
 endfacet
 facet normal -1 0 -0
  outer loop
   vertex 0.65 -0.1 1.22465e-17
   vertex 0.65 -0.05 0.0866025
   vertex 0.65 -0.05 -0.0866025
  endloop
 endfacet
 facet normal 0.240192 0.840673 0.485363
  outer loop
   vertex 1 0 0
   vertex 0.65 0.1 0
   vertex 0.65 0.05 0.0866025
  endloop
 endfacet
 facet normal 0.240192 0 0.970725
  outer loop
   vertex 1 0 0
   vertex 0.65 0.05 0.0866025
   vertex 0.65 -0.05 0.0866025
  endloop
 endfacet
 facet normal 0.240192 -0.840673 0.485363
  outer loop
   vertex 1 0 0
   vertex 0.65 -0.05 0.0866025
   vertex 0.65 -0.1 1.22465e-17
  endloop
 endfacet
 facet normal 0.240192 -0.840673 -0.485363
  outer loop
   vertex 1 0 0
   vertex 0.65 -0.1 1.22465e-17
   vertex 0.65 -0.05 -0.0866025
  endloop
 endfacet
 facet normal 0.240192 0 -0.970725
  outer loop
   vertex 1 0 0
   vertex 0.65 -0.05 -0.0866025
   vertex 0.65 0.05 -0.0866025
  endloop
 endfacet
 facet normal 0.240192 0.840673 -0.485363
  outer loop
   vertex 1 0 0
   vertex 0.65 0.05 -0.0866025
   vertex 0.65 0.1 0
  endloop
 endfacet
endsolid
